HIERARCHY
ROOT SpineBase
{
  OFFSET 0.000000 0.000000 0.000000
  CHANNELS 6 Xposition Yposition Zposition Zrotation Xrotation Yrotation
  JOINT SpineMid
  {
    OFFSET -0.000000 32.310476 0.000000
    CHANNELS 3 Zrotation Xrotation Yrotation
    JOINT SpineShoulder
    {
      OFFSET 0.072427 24.071021 -0.892111
      CHANNELS 3 Zrotation Xrotation Yrotation
      JOINT Neck
      {
        OFFSET 0.051817 7.981080 -0.649269
        CHANNELS 3 Zrotation Xrotation Yrotation
        JOINT Head
        {
          OFFSET 0.883805 11.838834 4.011989
          CHANNELS 3 Zrotation Xrotation Yrotation
          End Site
          {
            OFFSET 0 0 0
          }
        }
      }
      JOINT ShoulderLeft
      {
        OFFSET -10.709286 -5.645886 -3.528003
        CHANNELS 3 Zrotation Xrotation Yrotation
        JOINT ElbowLeft
        {
          OFFSET 1.530084 -19.537422 2.678984
          CHANNELS 3 Zrotation Xrotation Yrotation
          JOINT WristLeft
          {
            OFFSET 24.492140 -10.503577 -8.525128
            CHANNELS 3 Zrotation Xrotation Yrotation
            JOINT HandLeft
            {
              OFFSET 0.990340 -3.763417 0.382682
              CHANNELS 3 Zrotation Xrotation Yrotation
              JOINT HandTipLeft
              {
                OFFSET 5.419404 -5.937918 1.193411
                CHANNELS 3 Zrotation Xrotation Yrotation
                End Site
                {
                  OFFSET 0 0 0
                }
              }
              JOINT ThumbLeft
              {
                OFFSET -4.976262 -6.075948 -1.192792
                CHANNELS 3 Zrotation Xrotation Yrotation
                End Site
                {
                  OFFSET 0 0 0
                }
              }
            }
          }
        }
      }
      JOINT ShoulderRight
      {
        OFFSET 11.275119 -7.346261 -12.248491
        CHANNELS 3 Zrotation Xrotation Yrotation
        JOINT ElbowRight
        {
          OFFSET 7.576876 -21.150785 -0.084052
          CHANNELS 3 Zrotation Xrotation Yrotation
          JOINT WristRight
          {
            OFFSET 0.874361 -24.093170 7.908617
            CHANNELS 3 Zrotation Xrotation Yrotation
            JOINT HandRight
            {
              OFFSET 0.249348 -5.695451 2.845748
              CHANNELS 3 Zrotation Xrotation Yrotation
              JOINT HandTipRight
              {
                OFFSET -0.862606 -6.917788 1.133991
                CHANNELS 3 Zrotation Xrotation Yrotation
                End Site
                {
                  OFFSET 0 0 0
                }
              }
              JOINT ThumbRight
              {
                OFFSET 3.427702 0.265670 -2.721135
                CHANNELS 3 Zrotation Xrotation Yrotation
                End Site
                {
                  OFFSET 0 0 0
                }
              }
            }
          }
        }
      }
    }
  }
  JOINT HipLeft
  {
    OFFSET -4.447548 1.688938 -0.641927
    CHANNELS 3 Zrotation Xrotation Yrotation
    JOINT KneeLeft
    {
      OFFSET -3.923526 -31.170616 -1.929101
      CHANNELS 3 Zrotation Xrotation Yrotation
      JOINT AnkleLeft
      {
        OFFSET -4.139221 -35.262172 0.272572
        CHANNELS 3 Zrotation Xrotation Yrotation
        JOINT FootLeft
        {
          OFFSET 0.861512 -4.511749 -6.582830
          CHANNELS 3 Zrotation Xrotation Yrotation
          End Site
          {
            OFFSET 0 0 0
          }
        }
      }
    }
  }
  JOINT HipRight
  {
    OFFSET 4.951295 1.727841 -5.738916
    CHANNELS 3 Zrotation Xrotation Yrotation
    JOINT KneeRight
    {
      OFFSET -1.240334 -28.349235 -0.682400
      CHANNELS 3 Zrotation Xrotation Yrotation
      JOINT AnkleRight
      {
        OFFSET -1.902018 -33.457020 -3.427146
        CHANNELS 3 Zrotation Xrotation Yrotation
        JOINT FootRight
        {
          OFFSET -6.314792 -2.728348 -5.220816
          CHANNELS 3 Zrotation Xrotation Yrotation
          End Site
          {
            OFFSET 0 0 0
          }
        }
      }
    }
  }
}
MOTION
Frames: 9
Frame Time: 0.033333
-14.427364 71.246426 212.709532 -0.373520 0.817097 2.904109 0.019412 0.063080 -2.917030 0.026397 0.030878 -0.016671 6.427968 2.827928 -2.397572 0.000000 0.000000 0.000000 -22.608734 1.172991 -2.990697 -47.042631 -14.264123 -42.394324 25.177581 23.333292 22.847725 11.011494 19.725456 16.120666 0.000000 0.000000 0.000000 0.000000 0.000000 0.000000 -6.596196 -6.420758 -2.407524 4.108802 6.113869 1.095956 0.315763 -0.803509 -0.336011 1.881718 11.853006 -0.292138 0.000000 0.000000 0.000000 0.000000 0.000000 0.000000 -1.518703 3.595918 -3.269893 3.570065 2.843002 -0.316057 -5.435544 16.389253 8.735966 0.000000 0.000000 0.000000 11.425957 -4.921979 -2.455864 -6.477478 -5.990295 0.627543 23.301032 -12.897412 -51.099083 0.000000 0.000000 0.000000
-13.834300 71.382295 213.253156 -0.446830 0.887769 1.121979 0.019400 0.064693 -1.136894 0.033624 0.029032 -0.019398 6.649400 2.814580 -2.446475 0.000000 0.000000 0.000000 -22.120103 2.180644 -2.650465 -48.226720 -14.850656 -42.824942 23.108876 20.196279 21.614750 8.175722 19.775238 15.732916 0.000000 0.000000 0.000000 0.000000 0.000000 0.000000 -6.707395 -6.529705 -2.438660 2.857659 6.256339 0.793427 3.539011 -1.337505 1.024847 0.075835 12.071303 -1.164304 0.000000 0.000000 0.000000 0.000000 0.000000 0.000000 -1.536691 3.725413 -1.514522 2.907500 3.015464 -0.342215 -1.928836 13.158717 5.044408 0.000000 0.000000 0.000000 10.931902 -3.687165 -0.834102 -5.934366 -6.551360 0.594688 21.671929 -9.323859 -52.622918 0.000000 0.000000 0.000000
-13.269081 71.478769 213.645540 -0.444798 1.014753 -0.298047 0.015832 0.066310 0.283234 0.036976 0.029194 -0.019503 6.757928 3.021061 -2.512160 0.000000 0.000000 0.000000 -21.638895 2.761529 -2.439589 -42.682908 -16.290219 -40.255878 37.165781 22.102417 13.917975 -14.139329 17.181469 12.886331 0.000000 0.000000 0.000000 0.000000 0.000000 0.000000 -6.361128 -7.165065 -2.644989 1.267200 6.905619 0.764837 5.913647 -1.337998 2.033308 -0.981911 11.748808 -1.734967 0.000000 0.000000 0.000000 0.000000 0.000000 0.000000 -1.814254 3.692275 -0.094383 2.640674 2.980375 -0.347414 -1.024875 13.071232 4.526477 0.000000 0.000000 0.000000 10.305521 -2.844494 0.484211 -5.363035 -6.986228 0.569663 18.264155 -1.823924 -52.957316 0.000000 0.000000 0.000000
-12.669315 71.741381 213.919061 -0.410834 1.216439 -1.809863 0.012919 0.066693 1.796079 0.058073 0.024055 -0.016731 6.692876 3.084680 -2.521473 0.000000 0.000000 0.000000 -21.661068 3.272073 -2.322237 -41.618846 -17.021282 -39.374631 38.370270 17.127014 10.565782 -19.826126 22.456905 20.864940 0.000000 0.000000 0.000000 0.000000 0.000000 0.000000 -6.066307 -7.340587 -2.634359 -0.339190 7.501895 0.571283 7.940719 -1.400856 2.897798 -2.339151 10.825519 -2.151770 0.000000 0.000000 0.000000 0.000000 0.000000 0.000000 -2.177448 3.417376 1.433221 2.638548 3.153384 -0.378970 -0.155903 12.646082 3.765018 0.000000 0.000000 0.000000 9.650533 -2.296176 1.940625 -4.974607 -7.197456 0.549782 14.406467 6.682456 -52.135834 0.000000 0.000000 0.000000
-12.112014 71.746271 214.236877 -0.333227 1.334627 -3.052705 0.006326 0.077753 3.040712 0.054069 0.032164 -0.014303 6.540128 3.529150 -2.552795 0.000000 0.000000 0.000000 -21.792033 3.679543 -2.240086 -41.187104 -17.620169 -38.348758 41.775234 15.714109 7.757998 -26.484164 21.399139 20.479086 0.000000 0.000000 0.000000 0.000000 0.000000 0.000000 -5.858920 -7.645695 -2.702800 -1.395686 8.373983 0.580991 9.659341 -2.599949 3.670775 -3.195614 10.558739 -2.472719 0.000000 0.000000 0.000000 0.000000 0.000000 0.000000 -2.778891 3.278345 2.700521 2.970809 3.154651 -0.389203 0.355750 12.685533 3.315928 0.000000 0.000000 0.000000 9.170472 -1.818592 3.133755 -4.878946 -7.347310 0.541525 10.209924 14.821974 -49.824535 0.000000 0.000000 0.000000
-11.636471 71.513264 214.554346 -0.266451 1.432097 -4.003264 0.009023 0.072827 3.993048 0.041009 0.038217 -0.012740 6.386312 4.004038 -2.581524 0.000000 0.000000 0.000000 -21.806929 3.938929 -2.180005 -41.424763 -17.923582 -38.026114 45.064487 16.932592 6.476401 -30.202456 18.023373 15.465245 0.000000 0.000000 0.000000 0.000000 0.000000 0.000000 -5.818233 -8.129208 -2.871484 -1.791409 9.119322 0.753712 11.181225 -3.226168 4.454568 -4.457289 7.718348 -2.663723 0.000000 0.000000 0.000000 0.000000 0.000000 0.000000 -3.368268 3.222244 3.668247 3.419831 2.983059 -0.374063 -0.128646 16.479875 4.309006 0.000000 0.000000 0.000000 8.749731 -1.520163 4.055062 -4.854471 -7.338746 0.529098 10.368391 15.998130 -51.369465 0.000000 0.000000 0.000000
-11.239170 71.064474 214.934009 -0.204517 1.443414 -4.467979 0.030811 0.053470 4.460284 0.020381 0.046584 -0.011053 6.139992 4.776251 -2.612773 0.000000 0.000000 0.000000 -21.899572 4.248871 -2.104112 -41.805597 -18.091596 -38.257267 48.858262 21.386923 6.343946 -36.557294 11.128138 4.675057 0.000000 0.000000 0.000000 0.000000 0.000000 0.000000 -5.566117 -8.817767 -3.136504 -2.389610 10.032579 1.082139 12.526629 -3.810261 5.157855 -6.219107 8.275162 -3.231013 0.000000 0.000000 0.000000 0.000000 0.000000 0.000000 -3.812476 3.472861 4.126890 3.757092 2.684475 -0.331901 0.794957 12.858586 2.815493 0.000000 0.000000 0.000000 8.266186 -1.223004 4.485405 -4.740082 -7.290989 0.510226 11.922896 14.941019 -54.280522 0.000000 0.000000 0.000000
-10.966949 70.480853 215.299104 -0.180159 1.388488 -4.509944 0.056338 0.021166 4.504079 -0.001330 0.049517 -0.010720 6.125753 5.567261 -2.712034 0.000000 0.000000 0.000000 -21.902307 4.469056 -2.033026 -42.082800 -17.974061 -39.390639 50.537153 27.542727 8.055547 -38.761239 5.033246 -6.311297 0.000000 0.000000 0.000000 0.000000 0.000000 0.000000 -4.906601 -9.871587 -3.532766 -3.230351 11.017183 1.647836 13.740397 -4.407421 5.791687 -6.860819 10.515964 -3.848497 0.000000 0.000000 0.000000 0.000000 0.000000 0.000000 -4.017691 3.911141 4.148298 3.849119 2.262232 -0.269325 1.249710 9.570825 1.944408 0.000000 0.000000 0.000000 7.791262 -0.956537 4.494854 -4.511103 -7.294824 0.493958 10.996532 15.702931 -52.151297 0.000000 0.000000 0.000000
-10.772844 69.810552 215.673831 -0.219941 1.310669 -4.406989 0.094771 -0.010660 4.401979 -0.021916 0.053960 -0.012421 6.047255 6.579643 -2.788835 0.000000 0.000000 0.000000 -21.877642 4.544474 -1.997308 -42.580949 -17.610767 -41.084272 50.049018 34.777608 11.397355 -39.216006 0.707336 -13.521975 0.000000 0.000000 0.000000 0.000000 0.000000 0.000000 -4.909789 -10.101088 -3.663281 -3.306801 10.976793 1.753226 15.313556 -5.445238 6.560010 -6.216576 12.240620 -4.307302 0.000000 0.000000 0.000000 0.000000 0.000000 0.000000 -3.961971 4.466347 4.007637 3.722137 1.712656 -0.188381 1.925948 6.965991 0.869705 0.000000 0.000000 0.000000 7.295882 -0.639596 4.356892 -4.131474 -7.395751 0.479767 12.783993 9.310975 -47.928104 0.000000 0.000000 0.000000
